<svg width="19" height="20" viewBox="0 0 19 20" fill="none" xmlns="http://www.w3.org/2000/svg">
<path fill-rule="evenodd" clip-rule="evenodd" d="M14.053 0C16.492 0 18.478 1.985 18.478 4.425V15.564C18.478 18.01 16.487 20 14.042 20H9.157C6.718 20 4.733 18.015 4.733 15.575V14.633C4.733 14.219 5.069 13.883 5.483 13.883C5.897 13.883 6.233 14.219 6.233 14.633V15.575C6.233 17.187 7.545 18.5 9.157 18.5H14.042C15.661 18.5 16.978 17.184 16.978 15.564V4.425C16.978 2.813 15.665 1.5 14.053 1.5H9.168C7.55 1.5 6.233 2.816 6.233 4.434V5.367C6.233 5.781 5.897 6.117 5.483 6.117C5.069 6.117 4.733 5.781 4.733 5.367V4.434C4.733 1.989 6.723 0 9.168 0H14.053ZM10.3923 6.553L13.3212 9.46975C13.345 9.49351 13.3672 9.51885 13.3876 9.5456L13.3213 9.469C13.3612 9.50837 13.3962 9.55184 13.4258 9.59843C13.4318 9.61011 13.4387 9.62152 13.4452 9.63311C13.4566 9.65102 13.4663 9.67004 13.4751 9.68944C13.4801 9.7032 13.4858 9.71688 13.4912 9.73077C13.4997 9.74977 13.5063 9.76931 13.5121 9.78911C13.5155 9.8047 13.5195 9.82026 13.523 9.836C13.5285 9.85507 13.532 9.87425 13.5347 9.89358C13.5348 9.90237 13.5359 9.9116 13.5369 9.92088C13.5409 9.94728 13.5423 9.97358 13.5423 10L13.535 10.079L13.5341 10.1017C13.5339 10.1034 13.5337 10.1051 13.5334 10.1068L13.5423 10C13.5423 10.0555 13.5362 10.1105 13.5242 10.1639C13.5195 10.1797 13.5155 10.1953 13.511 10.2107C13.5063 10.2307 13.4997 10.2502 13.4923 10.2695C13.4858 10.2831 13.4801 10.2968 13.4739 10.3103C13.4663 10.33 13.4566 10.349 13.4461 10.3676C13.4387 10.3785 13.4318 10.3899 13.4247 10.4011C13.414 10.4202 13.4013 10.4383 13.3878 10.4558C13.3786 10.4662 13.37 10.4768 13.3611 10.4872C13.3491 10.5025 13.3355 10.517 13.3213 10.531L10.3923 13.446C10.2463 13.592 10.0543 13.665 9.8633 13.665C9.6713 13.665 9.4783 13.592 9.3323 13.444C9.0393 13.15 9.0413 12.676 9.3343 12.384L10.975 10.75H0.75C0.336 10.75 0 10.414 0 10C0 9.586 0.336 9.25 0.75 9.25H10.975L9.3343 7.615C9.0413 7.323 9.0393 6.849 9.3323 6.555C9.6253 6.261 10.0993 6.261 10.3923 6.553Z" fill="black"/>
</svg>
